<mxfile host="app.diagrams.net" agent="Mozilla/5.0 (Windows NT 10.0; Win64; x64) AppleWebKit/537.36 (KHTML, like Gecko) Chrome/135.0.0.0 Safari/537.36" version="26.2.14">
  <diagram name="페이지-1" id="4BUIDIx8d9sEfzmnJ7_j">
    <mxGraphModel dx="1425" dy="761" grid="1" gridSize="10" guides="1" tooltips="1" connect="1" arrows="1" fold="1" page="1" pageScale="1" pageWidth="827" pageHeight="1169" math="0" shadow="0">
      <root>
        <mxCell id="0" />
        <mxCell id="1" parent="0" />
        <mxCell id="LTW9vqIpw_pwumawQkqw-1" value="" style="rounded=0;whiteSpace=wrap;html=1;" vertex="1" parent="1">
          <mxGeometry x="120" y="80" width="600" height="920" as="geometry" />
        </mxCell>
        <mxCell id="LTW9vqIpw_pwumawQkqw-2" value="" style="rounded=0;whiteSpace=wrap;html=1;imageWidth=24;imageHeight=465;" vertex="1" parent="1">
          <mxGeometry x="194" y="220" width="465" height="600" as="geometry" />
        </mxCell>
        <mxCell id="LTW9vqIpw_pwumawQkqw-3" value="" style="rounded=0;whiteSpace=wrap;html=1;labelBackgroundColor=#000000;fillColor=#000000;" vertex="1" parent="1">
          <mxGeometry x="584.6" y="220" width="74.4" height="60" as="geometry" />
        </mxCell>
        <mxCell id="LTW9vqIpw_pwumawQkqw-4" value="" style="rounded=0;whiteSpace=wrap;html=1;labelBackgroundColor=#000000;fillColor=#000000;" vertex="1" parent="1">
          <mxGeometry x="580.6" y="790" width="31" height="30" as="geometry" />
        </mxCell>
        <mxCell id="LTW9vqIpw_pwumawQkqw-7" value="" style="endArrow=none;html=1;rounded=0;entryX=0;entryY=0;entryDx=0;entryDy=0;exitX=1;exitY=1;exitDx=0;exitDy=0;" edge="1" parent="1">
          <mxGeometry width="50" height="50" relative="1" as="geometry">
            <mxPoint x="611.5999999999999" y="819.9999999999998" as="sourcePoint" />
            <mxPoint x="611.5999999999999" y="220.00000000000023" as="targetPoint" />
            <Array as="points">
              <mxPoint x="612" y="520" />
            </Array>
          </mxGeometry>
        </mxCell>
        <mxCell id="LTW9vqIpw_pwumawQkqw-10" value="" style="rounded=1;whiteSpace=wrap;html=1;" vertex="1" parent="1">
          <mxGeometry x="194" y="460" width="56" height="60" as="geometry" />
        </mxCell>
        <mxCell id="LTW9vqIpw_pwumawQkqw-14" value="" style="rounded=1;whiteSpace=wrap;html=1;" vertex="1" parent="1">
          <mxGeometry x="314" y="220" width="10" height="120" as="geometry" />
        </mxCell>
        <mxCell id="LTW9vqIpw_pwumawQkqw-15" value="" style="rounded=1;whiteSpace=wrap;html=1;" vertex="1" parent="1">
          <mxGeometry x="494" y="780" width="86.6" height="40" as="geometry" />
        </mxCell>
        <mxCell id="LTW9vqIpw_pwumawQkqw-16" value="" style="rounded=1;whiteSpace=wrap;html=1;rotation=90;" vertex="1" parent="1">
          <mxGeometry x="271.5" y="511.5" width="10" height="165" as="geometry" />
        </mxCell>
        <mxCell id="LTW9vqIpw_pwumawQkqw-17" value="" style="rounded=1;whiteSpace=wrap;html=1;rotation=90;" vertex="1" parent="1">
          <mxGeometry x="525" y="511.5" width="10" height="165" as="geometry" />
        </mxCell>
        <mxCell id="LTW9vqIpw_pwumawQkqw-28" value="46.50&lt;span style=&quot;font-family: Arial, sans-serif; text-align: start;&quot;&gt;&lt;font style=&quot;color: rgb(0, 0, 0);&quot;&gt;m²&lt;/font&gt;&lt;/span&gt;&amp;nbsp;(14.07평형)" style="text;html=1;align=center;verticalAlign=middle;whiteSpace=wrap;rounded=0;" vertex="1" parent="1">
          <mxGeometry x="358" y="511.5" width="120" height="35" as="geometry" />
        </mxCell>
        <mxCell id="LTW9vqIpw_pwumawQkqw-30" value="경기도 화성시 와우안길 17&lt;div&gt;수원대학교 고운첨단과학기술연구원 906호&lt;/div&gt;&lt;div&gt;와우그로스&lt;/div&gt;" style="text;html=1;align=left;verticalAlign=middle;whiteSpace=wrap;rounded=0;fontSize=15;" vertex="1" parent="1">
          <mxGeometry x="191.5" y="100" width="470" height="60" as="geometry" />
        </mxCell>
        <mxCell id="LTW9vqIpw_pwumawQkqw-33" value="" style="verticalLabelPosition=bottom;html=1;verticalAlign=top;align=center;shape=mxgraph.floorplan.doorRight;aspect=fixed;rotation=-90;" vertex="1" parent="1">
          <mxGeometry x="195.06" y="258.94" width="114" height="121.13" as="geometry" />
        </mxCell>
        <mxCell id="LTW9vqIpw_pwumawQkqw-34" value="" style="verticalLabelPosition=bottom;html=1;verticalAlign=top;align=center;shape=mxgraph.floorplan.sink_22;rotation=-90;" vertex="1" parent="1">
          <mxGeometry x="189.71" y="393.21" width="68.57" height="60" as="geometry" />
        </mxCell>
        <mxCell id="LTW9vqIpw_pwumawQkqw-35" value="" style="verticalLabelPosition=bottom;html=1;verticalAlign=top;align=center;shape=mxgraph.floorplan.room;fillColor=strokeColor;" vertex="1" parent="1">
          <mxGeometry x="183" y="210" width="487" height="620" as="geometry" />
        </mxCell>
        <mxCell id="LTW9vqIpw_pwumawQkqw-36" value="" style="verticalLabelPosition=bottom;html=1;verticalAlign=top;align=center;shape=mxgraph.floorplan.office_chair;rotation=-90;" vertex="1" parent="1">
          <mxGeometry x="367" y="251.37" width="40" height="43" as="geometry" />
        </mxCell>
        <mxCell id="LTW9vqIpw_pwumawQkqw-37" value="" style="verticalLabelPosition=bottom;html=1;verticalAlign=top;align=center;shape=mxgraph.floorplan.office_chair;rotation=-90;" vertex="1" parent="1">
          <mxGeometry x="367" y="317.43" width="40" height="43" as="geometry" />
        </mxCell>
        <mxCell id="LTW9vqIpw_pwumawQkqw-38" value="" style="verticalLabelPosition=bottom;html=1;verticalAlign=top;align=center;shape=mxgraph.floorplan.office_chair;rotation=-90;" vertex="1" parent="1">
          <mxGeometry x="367" y="385.64" width="40" height="43" as="geometry" />
        </mxCell>
        <mxCell id="LTW9vqIpw_pwumawQkqw-39" value="" style="verticalLabelPosition=bottom;html=1;verticalAlign=top;align=center;shape=mxgraph.floorplan.office_chair;rotation=90;" vertex="1" parent="1">
          <mxGeometry x="509.1" y="317.43" width="40" height="43" as="geometry" />
        </mxCell>
        <mxCell id="LTW9vqIpw_pwumawQkqw-41" value="" style="verticalLabelPosition=bottom;html=1;verticalAlign=top;align=center;shape=mxgraph.floorplan.office_chair;rotation=90;" vertex="1" parent="1">
          <mxGeometry x="508.1" y="385.64" width="40" height="43" as="geometry" />
        </mxCell>
        <mxCell id="LTW9vqIpw_pwumawQkqw-42" value="" style="verticalLabelPosition=bottom;html=1;verticalAlign=top;align=center;shape=mxgraph.floorplan.office_chair;rotation=-180;" vertex="1" parent="1">
          <mxGeometry x="438" y="428.64" width="40" height="43" as="geometry" />
        </mxCell>
        <mxCell id="LTW9vqIpw_pwumawQkqw-47" value="" style="verticalLabelPosition=bottom;html=1;verticalAlign=top;align=center;shape=mxgraph.floorplan.office_chair;shadow=0;rotation=-180;" vertex="1" parent="1">
          <mxGeometry x="256.5" y="659" width="40" height="43" as="geometry" />
        </mxCell>
        <mxCell id="LTW9vqIpw_pwumawQkqw-48" value="" style="shape=rect;shadow=0;html=1;" vertex="1" parent="1">
          <mxGeometry x="193.5" y="599" width="166" height="90" as="geometry" />
        </mxCell>
        <mxCell id="LTW9vqIpw_pwumawQkqw-49" value="" style="verticalLabelPosition=bottom;html=1;verticalAlign=top;align=center;shape=mxgraph.floorplan.workstation;shadow=0;flipV=1;rotation=-180;" vertex="1" parent="1">
          <mxGeometry x="251.49999999999997" y="634" width="50" height="40" as="geometry" />
        </mxCell>
        <mxCell id="LTW9vqIpw_pwumawQkqw-50" value="" style="verticalLabelPosition=bottom;html=1;verticalAlign=top;align=center;shape=mxgraph.floorplan.office_chair;shadow=0;rotation=-180;" vertex="1" parent="1">
          <mxGeometry x="510" y="659" width="40" height="43" as="geometry" />
        </mxCell>
        <mxCell id="LTW9vqIpw_pwumawQkqw-51" value="" style="shape=rect;shadow=0;html=1;" vertex="1" parent="1">
          <mxGeometry x="445.6" y="599" width="166" height="90" as="geometry" />
        </mxCell>
        <mxCell id="LTW9vqIpw_pwumawQkqw-52" value="" style="verticalLabelPosition=bottom;html=1;verticalAlign=top;align=center;shape=mxgraph.floorplan.workstation;shadow=0;flipV=1;rotation=-180;" vertex="1" parent="1">
          <mxGeometry x="503.6" y="634" width="50" height="40" as="geometry" />
        </mxCell>
        <mxCell id="LTW9vqIpw_pwumawQkqw-22" value="연구소장 김영진" style="text;html=1;align=center;verticalAlign=middle;whiteSpace=wrap;rounded=0;" vertex="1" parent="1">
          <mxGeometry x="485" y="599" width="90" height="30" as="geometry" />
        </mxCell>
        <mxCell id="LTW9vqIpw_pwumawQkqw-53" value="연구원 박종섭" style="text;html=1;align=center;verticalAlign=middle;whiteSpace=wrap;rounded=0;" vertex="1" parent="1">
          <mxGeometry x="231.5" y="599" width="90" height="30" as="geometry" />
        </mxCell>
        <mxCell id="LTW9vqIpw_pwumawQkqw-56" value="" style="verticalLabelPosition=bottom;html=1;verticalAlign=top;align=center;shape=mxgraph.floorplan.refrigerator;rotation=-90;" vertex="1" parent="1">
          <mxGeometry x="195.06" y="523" width="60" height="62" as="geometry" />
        </mxCell>
        <mxCell id="LTW9vqIpw_pwumawQkqw-57" value="7.22 m" style="shape=dimension;direction=south;whiteSpace=wrap;html=1;align=center;points=[];verticalAlign=top;labelBackgroundColor=none;horizontal=0;spacingTop=-15;" vertex="1" parent="1">
          <mxGeometry x="143" y="220" width="40" height="600" as="geometry" />
        </mxCell>
        <mxCell id="LTW9vqIpw_pwumawQkqw-58" value="6.44 m" style="shape=dimension;direction=west;whiteSpace=wrap;html=1;align=center;points=[];verticalAlign=top;spacingTop=-15;labelBackgroundColor=none;" vertex="1" parent="1">
          <mxGeometry x="194" y="180" width="476" height="40" as="geometry" />
        </mxCell>
        <mxCell id="LTW9vqIpw_pwumawQkqw-59" value="" style="verticalLabelPosition=bottom;html=1;verticalAlign=top;align=center;shape=mxgraph.floorplan.window;rotation=90;" vertex="1" parent="1">
          <mxGeometry x="580.6" y="368.21000000000004" width="159" height="25" as="geometry" />
        </mxCell>
        <mxCell id="LTW9vqIpw_pwumawQkqw-61" value="" style="verticalLabelPosition=bottom;html=1;verticalAlign=top;align=center;shape=mxgraph.floorplan.window;rotation=90;" vertex="1" parent="1">
          <mxGeometry x="580.6" y="523" width="159" height="25" as="geometry" />
        </mxCell>
        <mxCell id="LTW9vqIpw_pwumawQkqw-62" value="" style="verticalLabelPosition=bottom;html=1;verticalAlign=top;align=center;shape=mxgraph.floorplan.window;rotation=90;" vertex="1" parent="1">
          <mxGeometry x="580.6" y="680" width="159" height="25" as="geometry" />
        </mxCell>
        <mxCell id="LTW9vqIpw_pwumawQkqw-63" value="" style="rounded=0;whiteSpace=wrap;html=1;strokeColor=#FF3333;strokeWidth=3;" vertex="1" parent="1">
          <mxGeometry x="170" y="220" width="13" height="40" as="geometry" />
        </mxCell>
        <mxCell id="LTW9vqIpw_pwumawQkqw-64" value="현&lt;div&gt;판&lt;/div&gt;" style="text;html=1;align=center;verticalAlign=middle;whiteSpace=wrap;rounded=0;" vertex="1" parent="1">
          <mxGeometry x="146.5" y="230" width="23.5" height="30" as="geometry" />
        </mxCell>
        <mxCell id="LTW9vqIpw_pwumawQkqw-65" value="출&lt;div&gt;입&lt;/div&gt;&lt;div&gt;구&lt;/div&gt;" style="text;html=1;align=center;verticalAlign=middle;whiteSpace=wrap;rounded=0;" vertex="1" parent="1">
          <mxGeometry x="151.25" y="304.5" width="23.5" height="30" as="geometry" />
        </mxCell>
        <mxCell id="LTW9vqIpw_pwumawQkqw-68" value="" style="group" vertex="1" connectable="0" parent="1">
          <mxGeometry x="380" y="220" width="155" height="240" as="geometry" />
        </mxCell>
        <mxCell id="LTW9vqIpw_pwumawQkqw-8" value="" style="rounded=1;whiteSpace=wrap;html=1;arcSize=7;" vertex="1" parent="LTW9vqIpw_pwumawQkqw-68">
          <mxGeometry width="155" height="240" as="geometry" />
        </mxCell>
        <mxCell id="LTW9vqIpw_pwumawQkqw-29" value="회의 테이블" style="text;html=1;align=center;verticalAlign=middle;whiteSpace=wrap;rounded=0;" vertex="1" parent="LTW9vqIpw_pwumawQkqw-68">
          <mxGeometry x="40.75" y="105" width="73.5" height="30" as="geometry" />
        </mxCell>
        <mxCell id="LTW9vqIpw_pwumawQkqw-54" value="" style="verticalLabelPosition=bottom;html=1;verticalAlign=top;align=center;shape=mxgraph.floorplan.flat_tv;" vertex="1" parent="LTW9vqIpw_pwumawQkqw-68">
          <mxGeometry x="11.5" y="10" width="132" height="10" as="geometry" />
        </mxCell>
        <mxCell id="LTW9vqIpw_pwumawQkqw-69" value="" style="shape=table;startSize=0;container=1;collapsible=0;childLayout=tableLayout;fontSize=16;" vertex="1" parent="1">
          <mxGeometry x="180" y="850" width="490" height="120" as="geometry" />
        </mxCell>
        <mxCell id="LTW9vqIpw_pwumawQkqw-70" value="" style="shape=tableRow;horizontal=0;startSize=0;swimlaneHead=0;swimlaneBody=0;strokeColor=inherit;top=0;left=0;bottom=0;right=0;collapsible=0;dropTarget=0;fillColor=none;points=[[0,0.5],[1,0.5]];portConstraint=eastwest;fontSize=16;" vertex="1" parent="LTW9vqIpw_pwumawQkqw-69">
          <mxGeometry width="490" height="40" as="geometry" />
        </mxCell>
        <mxCell id="LTW9vqIpw_pwumawQkqw-71" value="구분" style="shape=partialRectangle;html=1;whiteSpace=wrap;connectable=0;strokeColor=inherit;overflow=hidden;fillColor=none;top=0;left=0;bottom=0;right=0;pointerEvents=1;fontSize=16;" vertex="1" parent="LTW9vqIpw_pwumawQkqw-70">
          <mxGeometry width="123" height="40" as="geometry">
            <mxRectangle width="123" height="40" as="alternateBounds" />
          </mxGeometry>
        </mxCell>
        <mxCell id="LTW9vqIpw_pwumawQkqw-72" value="가로(m)" style="shape=partialRectangle;html=1;whiteSpace=wrap;connectable=0;strokeColor=inherit;overflow=hidden;fillColor=none;top=0;left=0;bottom=0;right=0;pointerEvents=1;fontSize=16;" vertex="1" parent="LTW9vqIpw_pwumawQkqw-70">
          <mxGeometry x="123" width="121" height="40" as="geometry">
            <mxRectangle width="121" height="40" as="alternateBounds" />
          </mxGeometry>
        </mxCell>
        <mxCell id="LTW9vqIpw_pwumawQkqw-73" value="세로(m)" style="shape=partialRectangle;html=1;whiteSpace=wrap;connectable=0;strokeColor=inherit;overflow=hidden;fillColor=none;top=0;left=0;bottom=0;right=0;pointerEvents=1;fontSize=16;" vertex="1" parent="LTW9vqIpw_pwumawQkqw-70">
          <mxGeometry x="244" width="123" height="40" as="geometry">
            <mxRectangle width="123" height="40" as="alternateBounds" />
          </mxGeometry>
        </mxCell>
        <mxCell id="LTW9vqIpw_pwumawQkqw-82" value="면적값(&lt;span style=&quot;font-family: Arial, sans-serif; text-align: start;&quot;&gt;m²)&lt;/span&gt;" style="shape=partialRectangle;html=1;whiteSpace=wrap;connectable=0;strokeColor=inherit;overflow=hidden;fillColor=none;top=0;left=0;bottom=0;right=0;pointerEvents=1;fontSize=16;" vertex="1" parent="LTW9vqIpw_pwumawQkqw-70">
          <mxGeometry x="367" width="123" height="40" as="geometry">
            <mxRectangle width="123" height="40" as="alternateBounds" />
          </mxGeometry>
        </mxCell>
        <mxCell id="LTW9vqIpw_pwumawQkqw-74" value="" style="shape=tableRow;horizontal=0;startSize=0;swimlaneHead=0;swimlaneBody=0;strokeColor=inherit;top=0;left=0;bottom=0;right=0;collapsible=0;dropTarget=0;fillColor=none;points=[[0,0.5],[1,0.5]];portConstraint=eastwest;fontSize=16;" vertex="1" parent="LTW9vqIpw_pwumawQkqw-69">
          <mxGeometry y="40" width="490" height="40" as="geometry" />
        </mxCell>
        <mxCell id="LTW9vqIpw_pwumawQkqw-75" value="기업부설연구소" style="shape=partialRectangle;html=1;whiteSpace=wrap;connectable=0;strokeColor=inherit;overflow=hidden;fillColor=none;top=0;left=0;bottom=0;right=0;pointerEvents=1;fontSize=16;" vertex="1" parent="LTW9vqIpw_pwumawQkqw-74">
          <mxGeometry width="123" height="40" as="geometry">
            <mxRectangle width="123" height="40" as="alternateBounds" />
          </mxGeometry>
        </mxCell>
        <mxCell id="LTW9vqIpw_pwumawQkqw-76" value="6.44" style="shape=partialRectangle;html=1;whiteSpace=wrap;connectable=0;strokeColor=inherit;overflow=hidden;fillColor=none;top=0;left=0;bottom=0;right=0;pointerEvents=1;fontSize=16;" vertex="1" parent="LTW9vqIpw_pwumawQkqw-74">
          <mxGeometry x="123" width="121" height="40" as="geometry">
            <mxRectangle width="121" height="40" as="alternateBounds" />
          </mxGeometry>
        </mxCell>
        <mxCell id="LTW9vqIpw_pwumawQkqw-77" value="7.22" style="shape=partialRectangle;html=1;whiteSpace=wrap;connectable=0;strokeColor=inherit;overflow=hidden;fillColor=none;top=0;left=0;bottom=0;right=0;pointerEvents=1;fontSize=16;" vertex="1" parent="LTW9vqIpw_pwumawQkqw-74">
          <mxGeometry x="244" width="123" height="40" as="geometry">
            <mxRectangle width="123" height="40" as="alternateBounds" />
          </mxGeometry>
        </mxCell>
        <mxCell id="LTW9vqIpw_pwumawQkqw-83" value="46.50" style="shape=partialRectangle;html=1;whiteSpace=wrap;connectable=0;strokeColor=inherit;overflow=hidden;fillColor=none;top=0;left=0;bottom=0;right=0;pointerEvents=1;fontSize=16;" vertex="1" parent="LTW9vqIpw_pwumawQkqw-74">
          <mxGeometry x="367" width="123" height="40" as="geometry">
            <mxRectangle width="123" height="40" as="alternateBounds" />
          </mxGeometry>
        </mxCell>
        <mxCell id="LTW9vqIpw_pwumawQkqw-78" value="" style="shape=tableRow;horizontal=0;startSize=0;swimlaneHead=0;swimlaneBody=0;strokeColor=inherit;top=0;left=0;bottom=0;right=0;collapsible=0;dropTarget=0;fillColor=none;points=[[0,0.5],[1,0.5]];portConstraint=eastwest;fontSize=16;" vertex="1" parent="LTW9vqIpw_pwumawQkqw-69">
          <mxGeometry y="80" width="490" height="40" as="geometry" />
        </mxCell>
        <mxCell id="LTW9vqIpw_pwumawQkqw-79" value="&lt;font&gt;연구공간 총면적값(&lt;span style=&quot;font-family: Arial, sans-serif; text-align: start;&quot;&gt;m²)&lt;/span&gt;&lt;/font&gt;" style="shape=partialRectangle;html=1;whiteSpace=wrap;connectable=0;strokeColor=inherit;overflow=hidden;fillColor=none;top=0;left=0;bottom=0;right=0;pointerEvents=1;fontSize=16;rowspan=1;colspan=3;" vertex="1" parent="LTW9vqIpw_pwumawQkqw-78">
          <mxGeometry width="367" height="40" as="geometry">
            <mxRectangle width="123" height="40" as="alternateBounds" />
          </mxGeometry>
        </mxCell>
        <mxCell id="LTW9vqIpw_pwumawQkqw-80" value="" style="shape=partialRectangle;html=1;whiteSpace=wrap;connectable=0;strokeColor=inherit;overflow=hidden;fillColor=none;top=0;left=0;bottom=0;right=0;pointerEvents=1;fontSize=16;" vertex="1" visible="0" parent="LTW9vqIpw_pwumawQkqw-78">
          <mxGeometry x="123" width="121" height="40" as="geometry">
            <mxRectangle width="121" height="40" as="alternateBounds" />
          </mxGeometry>
        </mxCell>
        <mxCell id="LTW9vqIpw_pwumawQkqw-81" value="" style="shape=partialRectangle;html=1;whiteSpace=wrap;connectable=0;strokeColor=inherit;overflow=hidden;fillColor=none;top=0;left=0;bottom=0;right=0;pointerEvents=1;fontSize=16;" vertex="1" visible="0" parent="LTW9vqIpw_pwumawQkqw-78">
          <mxGeometry x="244" width="123" height="40" as="geometry">
            <mxRectangle width="123" height="40" as="alternateBounds" />
          </mxGeometry>
        </mxCell>
        <mxCell id="LTW9vqIpw_pwumawQkqw-84" value="46.50" style="shape=partialRectangle;html=1;whiteSpace=wrap;connectable=0;strokeColor=inherit;overflow=hidden;fillColor=none;top=0;left=0;bottom=0;right=0;pointerEvents=1;fontSize=16;" vertex="1" parent="LTW9vqIpw_pwumawQkqw-78">
          <mxGeometry x="367" width="123" height="40" as="geometry">
            <mxRectangle width="123" height="40" as="alternateBounds" />
          </mxGeometry>
        </mxCell>
      </root>
    </mxGraphModel>
  </diagram>
</mxfile>
